<?xml version="1.0" encoding="utf-8"?>
<!-- Generator: Adobe Illustrator 24.2.0, SVG Export Plug-In . SVG Version: 6.00 Build 0)  -->
<svg version="1.1" id="Layer_1" xmlns="http://www.w3.org/2000/svg" xmlns:xlink="http://www.w3.org/1999/xlink" x="0px" y="0px"
	 viewBox="0 0 122.9 122.9" style="enable-background:new 0 0 122.9 122.9;" xml:space="preserve">
<style type="text/css">
	.st0{fill:none;}
</style>
<g id="Layer_x0020_1">
	<rect y="0" class="st0" width="122.9" height="122.9"/>
	<g id="_644646448">
		<path d="M53.1,80c1.7-0.4,3.2-1,4.4-2c1.1-0.8,2-1.9,2.8-3.1c1.2-1.8,1.7-3.9,1.7-6.2c0-2.2-0.5-4.2-1.5-5.7
			c-1-1.6-2.5-2.7-4.5-3.5c1.3-0.7,2.3-1.4,3-2.2c1.2-1.4,1.8-3.4,1.8-5.8c0-2.3-0.6-4.3-1.8-6c-2-2.7-5.4-4.1-10.1-4.2H29.9v39.2
			h17.6C49.5,80.5,51.4,80.4,53.1,80z M37.7,48.2L37.7,48.2h8.5c1.9,0,3.4,0.2,4.6,0.6c1.4,0.6,2.1,1.8,2.1,3.6
			c0,1.7-0.5,2.8-1.6,3.4c-1.1,0.6-2.4,1-4.1,1h-9.5V48.2z M37.7,73.7L37.7,73.7V63.3h9.6c1.7,0,3,0.2,3.9,0.7
			c1.7,0.8,2.5,2.2,2.5,4.2c0,2.4-0.9,4-2.6,4.9c-0.9,0.5-2.3,0.7-4,0.7H37.7z"/>
		<g>
			<path d="M68.7,78c2.9,2.4,6.4,3.6,10.2,3.6c4.7,0,8.3-1.4,10.9-4.2c1.7-1.8,2.6-3.5,2.8-5.2h-7.7c-0.4,0.8-1,1.5-1.6,2
				c-1.1,0.9-2.5,1.3-4.2,1.3c-1.6,0-3-0.4-4.2-1.1c-1.9-1.2-2.9-3.2-3-6.1H93c0-2.5-0.1-4.4-0.2-5.8c-0.4-2.3-1.1-4.3-2.3-6
				c-1.3-2-3-3.4-5-4.3c-2-0.9-4.3-1.4-6.8-1.4c-4.2,0-7.7,1.3-10.3,4c-2.7,2.7-4,6.5-4,11.5C64.2,71.7,65.7,75.6,68.7,78z
				 M74.1,58.7L74.1,58.7c1.1-1.1,2.6-1.7,4.5-1.7c1.8,0,3.3,0.5,4.5,1.6c1.2,1,1.9,2.6,2,4.6h-13C72.3,61.3,73,59.8,74.1,58.7z"/>
			<polygon points="86.6,43.6 69.6,43.6 69.6,47.6 86.6,47.6 			"/>
		</g>
	</g>
</g>
</svg>
