<?xml version="1.0" encoding="utf-8"?>
<!-- Generator: Adobe Illustrator 24.2.0, SVG Export Plug-In . SVG Version: 6.00 Build 0)  -->
<svg version="1.1" id="Layer_1" xmlns="http://www.w3.org/2000/svg" xmlns:xlink="http://www.w3.org/1999/xlink" x="0px" y="0px"
	 viewBox="0 0 256 256" style="enable-background:new 0 0 256 256;" xml:space="preserve">
<style type="text/css">
	.st0{fill:none;stroke:#000000;stroke-width:4;stroke-linecap:round;stroke-linejoin:round;stroke-miterlimit:10;}
</style>
<path class="st0" d="M59.8,193.8c40.9,41.4,107.9,40.5,145.2,0.6c36.4-38.9,32.8-101.4-4.4-138.5C163,18.4,99.5,15.8,60.9,52.8
	C1,111,45.2,179.5,48.4,181.3"/>
<path class="st0" d="M69,159.9c-3.4,0.3-5.1-72.6,0.8-73.8s28.9-4,43.2,0.5s9,26.9-2.3,30.3c-11.4,3.5-17.2,1.7-17.2,5.3
	s8,2.5,16.8,3.3c21.7,0.9,19.7,33-1.8,34.2s-28,0-28,0"/>
<path class="st0" d="M160,133.6c10.6,0.2,29.9,0.2,31.7-2.5s1.7-22.3-20.8-23.2s-28.5,13.1-28,28.8c0.4,13.7,2.2,25.7,26.2,25.7
	s23.2-13,23.2-13"/>
<path class="st0" d="M152.8,91.1c10.1-0.3,20.2,0.4,30.3,0.2"/>
</svg>
