<?xml version="1.0" encoding="utf-8"?>
<!-- Generator: Adobe Illustrator 24.2.0, SVG Export Plug-In . SVG Version: 6.00 Build 0)  -->
<svg version="1.1" id="Layer_1" xmlns="http://www.w3.org/2000/svg" xmlns:xlink="http://www.w3.org/1999/xlink" x="0px" y="0px"
	 viewBox="0 0 122.9 122.9" style="enable-background:new 0 0 122.9 122.9;" xml:space="preserve">
<style type="text/css">
	.st0{fill:none;}
</style>
<g id="Layer_x0020_1">
	<rect y="0" class="st0" width="122.9" height="122.9"/>
	<g id="_799082544">
		<path d="M84.9,74c0,6.1-4.9,11-11,11H49c-6.1,0-11-4.9-11-11V49.2c0-6.1,4.9-11,11-11h24.9c6.1,0,11,4.9,11,11V74z M73.6,32.7
			H49.3c-9.2,0-16.6,7.4-16.6,16.6v24.3c0,9.2,7.4,16.6,16.6,16.6h24.3c9.2,0,16.6-7.4,16.6-16.6V49.3
			C90.2,40.1,82.7,32.7,73.6,32.7z"/>
		<path d="M61.4,71.2c-5.3,0-9.7-4.3-9.7-9.7c0-5.3,4.3-9.7,9.7-9.7c5.3,0,9.7,4.3,9.7,9.7C71.1,66.9,66.8,71.2,61.4,71.2z
			 M61.4,46.7c-8.2,0-14.9,6.7-14.9,14.9c0,8.2,6.7,14.9,14.9,14.9c8.2,0,14.9-6.7,14.9-14.9C76.4,53.3,69.7,46.7,61.4,46.7z"/>
		<path d="M76.9,42.6c-1.9,0-3.5,1.6-3.5,3.5s1.6,3.5,3.5,3.5s3.5-1.5,3.5-3.5S78.8,42.6,76.9,42.6z"/>
	</g>
</g>
</svg>
