<?xml version="1.0" encoding="utf-8"?>
<!-- Generator: Adobe Illustrator 24.2.0, SVG Export Plug-In . SVG Version: 6.00 Build 0)  -->
<svg version="1.1" id="Layer_1" xmlns="http://www.w3.org/2000/svg" xmlns:xlink="http://www.w3.org/1999/xlink" x="0px" y="0px"
	 viewBox="0 0 256 256" style="enable-background:new 0 0 256 256;" xml:space="preserve">
<style type="text/css">
	.st0{fill:none;stroke:#000000;stroke-width:4;stroke-linecap:round;stroke-linejoin:round;stroke-miterlimit:10;}
</style>
<path class="st0" d="M34.4,105.3c-15.3,59,21.5,118.7,77.3,130.9c54.5,11.9,108.7-24.9,122.1-78.2c13.6-54-18.1-112.4-72.1-127.2
	C77.3,8,39.5,84.5,39.5,88.4"/>
<path id="linkedin" class="st0" d="M106.7,169c-0.4-21.1,1-61.4-0.9-63.4s-17-7.9-19.9-12.5c-2.8-4.5-2-13.7,8.1-13.7
	s11.4,8.7,8.8,14.3c-2.6,5.6-17.6,9.8-19.3,12.1s-2.4,68.3,0,69.9s32.9,1.5,35.6-0.5c2.7-2-3.4-67.5,0-69.1s17.4-1.9,19.2-1.1
	c1.8,0.8,0.7,7.7,1.9,8.4c1.2,0.7,10.2-11.2,24.3-9.4c10.5,1.3,19.8,10.1,21.3,18.9s0.9,34.5,0.5,51.8c-7.2,0.3-14.4,0.7-21.6,0.9
	c-0.3-14.6,1.1-33.6-0.8-43.6c-1.9-10-22.3-9.8-22.1,0s1.6,43.6-2.7,43.5"/>
</svg>
