<?xml version="1.0" encoding="utf-8"?>
<!-- Generator: Adobe Illustrator 24.2.0, SVG Export Plug-In . SVG Version: 6.00 Build 0)  -->
<svg version="1.1" id="Layer_1" xmlns="http://www.w3.org/2000/svg" xmlns:xlink="http://www.w3.org/1999/xlink" x="0px" y="0px"
	 viewBox="0 0 122.9 122.9" style="enable-background:new 0 0 122.9 122.9;" xml:space="preserve">
<style type="text/css">
	.st0{fill:none;}
</style>
<g id="Layer_x0020_1">
	<rect y="0" class="st0" width="122.9" height="122.9"/>
	<g id="_799061112">
		<g>
			<polygon points="33.6,90.5 45.5,90.5 45.5,51.8 33.6,51.8 			"/>
			<path d="M39.5,46.7c3.9,0,7.1-3.2,7.1-7.2s-3.2-7.1-7.1-7.1c-3.9,0-7.1,3.2-7.1,7.1S35.6,46.7,39.5,46.7z"/>
		</g>
		<path d="M64.7,70.2c0-5.4,2.5-8.7,7.3-8.7c4.4,0,6.5,3.1,6.5,8.7s0,20.3,0,20.3h11.9c0,0,0-14.1,0-24.5s-5.9-15.4-14.1-15.4
			c-8.2,0-11.7,6.4-11.7,6.4v-5.2H53.2v38.7h11.5C64.7,90.5,64.7,76.1,64.7,70.2z"/>
	</g>
</g>
</svg>
