<svg xmlns="http://www.w3.org/2000/svg" width="240.093" height="130.999" viewBox="0 0 240.093 130.999">
  <g id="Group_100" data-name="Group 100" transform="translate(-67.425 -163.677)">
    <g id="buildings" transform="translate(-174.117 -127.508)">
      <g id="Group_76" data-name="Group 76" transform="translate(359.531 302.508)">
        <path id="Path_300" data-name="Path 300" d="M284.1,310.4l.65-7.669a.183.183,0,0,1,.346-.067l4.022,8.015a.233.233,0,0,1,.02.078l3.738,110.828a.183.183,0,0,1-.184.189h-8.863a.184.184,0,0,1-.184-.184l.455-111.174Z" transform="translate(-274.73 -302.446)" fill="#fff" stroke="#000" stroke-miterlimit="10" stroke-width="0.5"/>
        <path id="Path_301" data-name="Path 301" d="M281.236,421.708h7.916a.1.1,0,0,0,.1-.1V310.341l.37-7.609h-.8l-4.539,7.585a.1.1,0,0,0-.013.051l-4.641,111.465A15.808,15.808,0,0,0,281.236,421.708Z" transform="translate(-279.627 -302.508)" fill="#fff" stroke="#000" stroke-miterlimit="10" stroke-width="0.511"/>
      </g>
      <g id="Group_77" data-name="Group 77" transform="translate(466.22 407.751)">
        <rect id="Rectangle_1555" data-name="Rectangle 1555" width="1.369" height="6.23" transform="translate(2.274 7.647)" fill="#faf9f7" stroke="#231f20" stroke-miterlimit="10" stroke-width="0.41"/>
        <path id="Path_302" data-name="Path 302" d="M339.915,355.839a3.194,3.194,0,0,1-2.95,2.95,3.151,3.151,0,0,1-2.966-2.95c.024-.848.659-1.01.83-2.284.151-1.137-.3-1.434,0-2.178a2.467,2.467,0,0,1,2.135-1.454,2.52,2.52,0,0,1,2.539,2.02c.022.315-.087.382-.171.815C339.063,354.136,339.917,354.82,339.915,355.839Z" transform="translate(-333.999 -349.921)" fill="#faf9f7" stroke="#231f20" stroke-miterlimit="10" stroke-width="0.324"/>
      </g>
      <rect id="Rectangle_1556" data-name="Rectangle 1556" width="1.369" height="6.23" transform="translate(251.765 415.398)" fill="#faf9f7" stroke="#231f20" stroke-miterlimit="10" stroke-width="0.41"/>
      <g id="Group_78" data-name="Group 78" transform="translate(399.001 386.743)">
        <path id="Path_303" data-name="Path 303" d="M309.215,356.017c-2.553-1.62-4.155-4-4.155-6.659,0-4.928,5.507-8.9,12.315-8.9,6.781,0,12.313,3.973,12.313,8.9,0,2.664-1.6,5.039-4.155,6.659" transform="translate(-288.077 -340.457)" fill="#fff" stroke="#000" stroke-miterlimit="10" stroke-width="0.344"/>
        <rect id="Rectangle_1557" data-name="Rectangle 1557" width="44.721" height="14.774" transform="translate(6.937 18.046)" fill="#fff" stroke="#000" stroke-miterlimit="10" stroke-width="0.231"/>
        <path id="Path_319" data-name="Path 319" d="M0,0H35V6.663H0Z" transform="translate(11.798 8.901)" fill="#fff" stroke="#000" stroke-width="0.324"/>
        <path id="Path_320" data-name="Path 320" d="M.513,0H49.643a.513.513,0,0,1,.513.513v1.3a.513.513,0,0,1-.513.513H.513A.513.513,0,0,1,0,1.815V.513A.513.513,0,0,1,.513,0Z" transform="translate(4.22 13.958)" fill="#fff" stroke="#000" stroke-width="0.227"/>
        <rect id="Rectangle_1562" data-name="Rectangle 1562" width="1.41" height="14.238" transform="translate(9.94 18.582)" fill="#fff" stroke="#000" stroke-miterlimit="10" stroke-width="0.203"/>
        <rect id="Rectangle_1563" data-name="Rectangle 1563" width="1.636" height="14.238" transform="translate(13.904 18.582)" fill="#fff" stroke="#000" stroke-miterlimit="10" stroke-width="0.238"/>
        <rect id="Rectangle_1564" data-name="Rectangle 1564" width="1.887" height="14.238" transform="translate(17.769 18.582)" fill="#fff" stroke="#000" stroke-miterlimit="10" stroke-width="0.238"/>
        <rect id="Rectangle_1565" data-name="Rectangle 1565" width="2.227" height="14.238" transform="translate(22.622 18.582)" fill="#fff" stroke="#000" stroke-miterlimit="10" stroke-width="0.236"/>
        <rect id="Rectangle_1566" data-name="Rectangle 1566" width="2.895" height="14.238" transform="translate(27.566 18.582)" fill="#fff" stroke="#000" stroke-miterlimit="10" stroke-width="0.285"/>
        <rect id="Rectangle_1567" data-name="Rectangle 1567" width="1.41" height="14.238" transform="translate(48.582 32.82) rotate(180)" fill="#fff" stroke="#000" stroke-miterlimit="10" stroke-width="0.203"/>
        <rect id="Rectangle_1568" data-name="Rectangle 1568" width="1.636" height="14.238" transform="translate(44.618 32.82) rotate(180)" fill="#fff" stroke="#000" stroke-miterlimit="10" stroke-width="0.238"/>
        <rect id="Rectangle_1569" data-name="Rectangle 1569" width="1.887" height="14.238" transform="translate(40.753 32.82) rotate(180)" fill="#fff" stroke="#000" stroke-miterlimit="10" stroke-width="0.238"/>
        <rect id="Rectangle_1570" data-name="Rectangle 1570" width="2.227" height="14.238" transform="translate(35.901 32.82) rotate(180)" fill="#fff" stroke="#000" stroke-miterlimit="10" stroke-width="0.236"/>
        <rect id="Rectangle_1560" data-name="Rectangle 1560" width="48.604" height="2.296" transform="translate(4.781 16.286)" fill="#fff" stroke="#000" stroke-miterlimit="10" stroke-width="0.232"/>
        <path id="Path_321" data-name="Path 321" d="M0,0H57.251V2.406H0Z" transform="translate(0 32.82)" fill="#fff" stroke="#000" stroke-width="0.232"/>
      </g>
      <g id="Group_79" data-name="Group 79" transform="translate(267.398 359.582)">
        <rect id="Rectangle_1571" data-name="Rectangle 1571" width="28.842" height="5.002" transform="translate(22.06 37.169)" fill="#fff" stroke="#000" stroke-miterlimit="10" stroke-width="0.344"/>
        <rect id="Rectangle_1572" data-name="Rectangle 1572" width="66.226" height="22.126" transform="translate(3.261 40.201)" fill="#fff" stroke="#000" stroke-miterlimit="10" stroke-width="0.344"/>
        <rect id="Rectangle_1573" data-name="Rectangle 1573" width="67.59" height="3.152" transform="translate(2.519 38.231)" fill="#fff" stroke="#000" stroke-miterlimit="10" stroke-width="0.344"/>
        <path id="Path_317" data-name="Path 317" d="M0,0H73.093V2.737H0Z" transform="translate(0 59.59)" fill="#fff" stroke="#000" stroke-width="0.344"/>
        <path id="Path_316" data-name="Path 316" d="M0,0H31.257V2.241H0Z" transform="translate(20.745 57.349)" fill="#fff" stroke="#000" stroke-width="0.344"/>
        <rect id="Rectangle_1576" data-name="Rectangle 1576" width="0.917" height="8.737" transform="translate(21.602 43.512)" fill="#fff" stroke="#000" stroke-miterlimit="10" stroke-width="0.344"/>
        <rect id="Rectangle_1577" data-name="Rectangle 1577" width="0.917" height="8.737" transform="translate(50.444 43.512)" fill="#fff" stroke="#000" stroke-miterlimit="10" stroke-width="0.344"/>
        <rect id="Rectangle_1578" data-name="Rectangle 1578" width="2.251" height="8.737" transform="translate(24.519 43.512)" fill="#fff" stroke="#000" stroke-miterlimit="10" stroke-width="0.344"/>
        <rect id="Rectangle_1579" data-name="Rectangle 1579" width="2.251" height="8.737" transform="translate(28.77 43.512)" fill="#fff" stroke="#000" stroke-miterlimit="10" stroke-width="0.344"/>
        <rect id="Rectangle_1580" data-name="Rectangle 1580" width="2.251" height="8.737" transform="translate(32.938 43.512)" fill="#fff" stroke="#000" stroke-miterlimit="10" stroke-width="0.344"/>
        <rect id="Rectangle_1581" data-name="Rectangle 1581" width="2.251" height="8.737" transform="translate(37.523 43.512)" fill="#fff" stroke="#000" stroke-miterlimit="10" stroke-width="0.344"/>
        <rect id="Rectangle_1600" data-name="Rectangle 1600" width="0.693" height="2.425" transform="translate(34.147 12.511)" fill="#fff" stroke="#000" stroke-miterlimit="10" stroke-width="0.344"/>
        <rect id="Rectangle_1601" data-name="Rectangle 1601" width="0.623" height="2.425" transform="translate(35.523 12.511)" fill="#fff" stroke="#000" stroke-miterlimit="10" stroke-width="0.344"/>
        <rect id="Rectangle_1602" data-name="Rectangle 1602" width="0.627" height="2.425" transform="translate(36.829 12.511)" fill="#fff" stroke="#000" stroke-miterlimit="10" stroke-width="0.344"/>
        <rect id="Rectangle_1603" data-name="Rectangle 1603" width="0.627" height="2.425" transform="translate(38.233 12.511)" fill="#fff" stroke="#000" stroke-miterlimit="10" stroke-width="0.344"/>
        <rect id="Rectangle_1582" data-name="Rectangle 1582" width="2.251" height="8.737" transform="translate(41.858 43.512)" fill="#fff" stroke="#000" stroke-miterlimit="10" stroke-width="0.344"/>
        <rect id="Rectangle_1583" data-name="Rectangle 1583" width="2.251" height="8.737" transform="translate(46.276 43.512)" fill="#fff" stroke="#000" stroke-miterlimit="10" stroke-width="0.344"/>
        <path id="Path_304" data-name="Path 304" d="M267.332,349.384H250.744l8.294-3.94,8.294,3.94Z" transform="translate(-222.724 -307.213)" fill="#fff" stroke="#000" stroke-miterlimit="10" stroke-width="0.344"/>
        <rect id="Rectangle_1587" data-name="Rectangle 1587" width="0.969" height="3.401" transform="translate(25.631 27.395)" fill="#fff" stroke="#000" stroke-miterlimit="10" stroke-width="0.344"/>
        <rect id="Rectangle_1588" data-name="Rectangle 1588" width="0.951" height="3.401" transform="translate(46.511 27.395)" fill="#fff" stroke="#000" stroke-miterlimit="10" stroke-width="0.344"/>
        <rect id="Rectangle_1589" data-name="Rectangle 1589" width="1.379" height="3.401" transform="translate(27.331 27.395)" fill="#fff" stroke="#000" stroke-miterlimit="10" stroke-width="0.344"/>
        <rect id="Rectangle_1590" data-name="Rectangle 1590" width="1.537" height="3.401" transform="translate(29.372 27.395)" fill="#fff" stroke="#000" stroke-miterlimit="10" stroke-width="0.344"/>
        <rect id="Rectangle_1591" data-name="Rectangle 1591" width="1.537" height="3.401" transform="translate(31.544 27.395)" fill="#fff" stroke="#000" stroke-miterlimit="10" stroke-width="0.344"/>
        <rect id="Rectangle_1592" data-name="Rectangle 1592" width="1.537" height="3.401" transform="translate(33.715 27.395)" fill="#fff" stroke="#000" stroke-miterlimit="10" stroke-width="0.344"/>
        <rect id="Rectangle_1593" data-name="Rectangle 1593" width="1.537" height="3.401" transform="translate(35.88 27.395)" fill="#fff" stroke="#000" stroke-miterlimit="10" stroke-width="0.344"/>
        <rect id="Rectangle_1594" data-name="Rectangle 1594" width="1.537" height="3.401" transform="translate(38.091 27.395)" fill="#fff" stroke="#000" stroke-miterlimit="10" stroke-width="0.344"/>
        <rect id="Rectangle_1595" data-name="Rectangle 1595" width="1.537" height="3.401" transform="translate(40.329 27.395)" fill="#fff" stroke="#000" stroke-miterlimit="10" stroke-width="0.344"/>
        <path id="Path_314" data-name="Path 314" d="M0,0H24V4.545H0Z" transform="translate(24.519 32.624)" fill="#fff" stroke="#000" stroke-width="0.344"/>
        <rect id="Rectangle_1596" data-name="Rectangle 1596" width="1.537" height="3.401" transform="translate(42.433 27.395)" fill="#fff" stroke="#000" stroke-miterlimit="10" stroke-width="0.344"/>
        <rect id="Rectangle_1598" data-name="Rectangle 1598" width="1.288" height="3.401" transform="translate(44.537 27.395)" fill="#fff" stroke="#000" stroke-miterlimit="10" stroke-width="0.344"/>
        <rect id="Rectangle_1585" data-name="Rectangle 1585" width="23.405" height="1.546" transform="translate(24.844 30.796)" fill="#fff" stroke="#000" stroke-miterlimit="10" stroke-width="0.344"/>
        <rect id="Rectangle_1586" data-name="Rectangle 1586" width="23.405" height="0.969" transform="translate(24.844 26.427)" fill="#fff" stroke="#000" stroke-miterlimit="10" stroke-width="0.344"/>
        <rect id="Rectangle_1597" data-name="Rectangle 1597" width="6.956" height="1.651" transform="translate(33.073 14.936)" fill="#fff" stroke="#000" stroke-miterlimit="10" stroke-width="0.344"/>
        <rect id="Rectangle_1604" data-name="Rectangle 1604" width="0.179" height="7.548" transform="translate(36.465)" fill="#fff" stroke="#000" stroke-miterlimit="10" stroke-width="0.344"/>
        <path id="Path_305" data-name="Path 305" d="M270.385,345.624l-20.341-.042a10.177,10.177,0,0,1,10.193-10.151,10.282,10.282,0,0,1,9.14,5.752A9.812,9.812,0,0,1,270.385,345.624Z" transform="translate(-223.577 -319.426)" fill="#fff" stroke="#000" stroke-miterlimit="10" stroke-width="0.344"/>
        <path id="Path_306" data-name="Path 306" d="M253.931,332.924a1.469,1.469,0,0,1,2.919,0v2.326h-2.919Z" transform="translate(-218.836 -324.073)" fill="#fff" stroke="#000" stroke-miterlimit="10" stroke-width="0.344"/>
        <path id="Path_318" data-name="Path 318" d="M0,0H6.061V1.247H0Z" transform="translate(33.524 11.126)" fill="#fff" stroke="#000" stroke-width="0.344"/>
        <path id="Path_315" data-name="Path 315" d="M0,0H31.257V2.241H0Z" transform="translate(20.745 55.108)" fill="#fff" stroke="#000" stroke-width="0.344"/>
      </g>
      <path id="Path_322" data-name="Path 322" d="M0,0H236.257" transform="translate(245.378 421.845)" fill="none" stroke="#d0d0d0" stroke-width="0.344"/>
      <path id="Path_307" data-name="Path 307" d="M230.7,355.1a3.091,3.091,0,0,1-.444,2.051,3.347,3.347,0,0,1-2.246,1.254c-.1.016-2.317.364-3.5-1.077a3.929,3.929,0,0,1-.55-1.813,3.432,3.432,0,0,1-.064-.795,3.283,3.283,0,0,1,.542-1.6c.062-.1,1.285-1.964,3.052-1.769a4.711,4.711,0,0,1,2.79,2.2A3.879,3.879,0,0,1,230.7,355.1Z" transform="translate(24.923 59.563)" fill="#faf9f7" stroke="#231f20" stroke-miterlimit="10" stroke-width="0.29"/>
      <path id="Path_308" data-name="Path 308" d="M226.472,352.5" transform="translate(15.07 60.979)" fill="#faf9f7" stroke="#231f20" stroke-miterlimit="10" stroke-width="0.29"/>
      <g id="Group_80" data-name="Group 80" transform="translate(347.053 407.751)">
        <rect id="Rectangle_1606" data-name="Rectangle 1606" width="1.369" height="6.23" transform="translate(2.273 7.647)" fill="#faf9f7" stroke="#231f20" stroke-miterlimit="10" stroke-width="0.41"/>
        <path id="Path_309" data-name="Path 309" d="M279.922,355.839a3.2,3.2,0,0,1-2.952,2.95,3.149,3.149,0,0,1-2.963-2.95c.022-.848.659-1.01.828-2.284.153-1.137-.3-1.434,0-2.178a2.467,2.467,0,0,1,2.135-1.454,2.518,2.518,0,0,1,2.539,2.02c.024.315-.087.382-.171.815C279.067,354.136,279.922,354.82,279.922,355.839Z" transform="translate(-274.006 -349.921)" fill="#faf9f7" stroke="#231f20" stroke-miterlimit="10" stroke-width="0.324"/>
      </g>
      <rect id="Rectangle_1607" data-name="Rectangle 1607" width="1.369" height="6.23" transform="translate(387.874 415.751)" fill="#faf9f7" stroke="#231f20" stroke-miterlimit="10" stroke-width="0.41"/>
      <path id="Path_310" data-name="Path 310" d="M297.874,355.263a3.068,3.068,0,0,1-.442,2.049,3.343,3.343,0,0,1-2.246,1.256c-.1.015-2.317.364-3.5-1.077a3.931,3.931,0,0,1-.551-1.813,3.441,3.441,0,0,1-.064-.795,3.3,3.3,0,0,1,.542-1.6c.062-.1,1.285-1.962,3.052-1.767a3.774,3.774,0,0,1,2.326,1.529,3.813,3.813,0,0,1,.464.675A3.854,3.854,0,0,1,297.874,355.263Z" transform="translate(93.857 59.757)" fill="#faf9f7" stroke="#231f20" stroke-miterlimit="10" stroke-width="0.29"/>
      <path id="Path_311" data-name="Path 311" d="M293.647,352.662" transform="translate(97.004 61.173)" fill="#faf9f7" stroke="#231f20" stroke-miterlimit="10" stroke-width="0.29"/>
    </g>
    <g id="clouds_front">
      <path id="Path_299" data-name="Path 299" d="M387.343,346.661A6.346,6.346,0,0,1,381,353.005H355.549A4.617,4.617,0,1,1,356.6,343.9a6.342,6.342,0,0,1,5.484-3.576,8.821,8.821,0,0,1,16.134.635,6.348,6.348,0,0,1,9.123,5.706Z" transform="translate(-111.929 -141.355)" fill="#fff" stroke="#eaeaea" stroke-miterlimit="10" stroke-width="0.672"/>
      <path id="Path_312" data-name="Path 312" d="M387.343,346.661A6.346,6.346,0,0,1,381,353.005H355.549A4.617,4.617,0,1,1,356.6,343.9a6.342,6.342,0,0,1,5.484-3.576,8.821,8.821,0,0,1,16.134.635,6.348,6.348,0,0,1,9.123,5.706Z" transform="translate(-243.929 -141.355)" fill="#fff" stroke="#eaeaea" stroke-miterlimit="10" stroke-width="0.672"/>
    </g>
    <g id="cloud_back">
      <path id="Path_313" data-name="Path 313" d="M368.929,340.951a3.137,3.137,0,0,1-3.137,3.136h-12.58a2.282,2.282,0,1,1,.521-4.5,3.135,3.135,0,0,1,2.711-1.768,4.361,4.361,0,0,1,7.975.314,3.138,3.138,0,0,1,4.509,2.82Z" transform="translate(-194.929 -171.355)" fill="#fff" stroke="#eaeaea" stroke-miterlimit="10" stroke-width="0.672"/>
    </g>
  </g>
</svg>
